<svg id="Layer_3" enable-background="new 0 0 64 64" height="512" viewBox="0 0 64 64" width="512" xmlns="http://www.w3.org/2000/svg"><g><path d="m32 19c-7.168 0-13 5.832-13 13s5.832 13 13 13 13-5.832 13-13-5.832-13-13-13zm-11 13c0-.338.021-.67.051-1h21.899c.029.33.05.662.05 1s-.021.67-.051 1h-21.898c-.03-.33-.051-.662-.051-1zm12-3h-2v-4h2zm8.786-2c.325.634.59 1.302.788 2h-1.574v-2zm-1.307-2h-.479c-.552 0-1 .448-1 1v3h-4v-5c0-.552-.448-1-1-1h-4c-.552 0-1 .448-1 1v5h-4v-5.479c1.903-1.574 4.343-2.521 7-2.521 3.408 0 6.459 1.559 8.479 4zm-17.479.695v3.305h-1.574c.341-1.197.875-2.311 1.574-3.305zm2.695 15.305h12.609c-1.787 1.256-3.959 2-6.305 2s-4.516-.744-6.304-2zm14.784-2h-16.958c-.957-1.158-1.674-2.517-2.095-4h21.147c-.421 1.483-1.137 2.842-2.094 4z"/><path d="m61.878 56.464-11.533-11.533c.399-.755.29-1.71-.345-2.345l-1.586-1.586h7.586c1.654 0 3-1.346 3-3v-34c0-1.654-1.346-3-3-3h-52c-1.654 0-3 1.346-3 3v34c0 1.654 1.346 3 3 3h13.604c3.009 4.795 8.329 8 14.396 8 2.779 0 5.397-.684 7.715-1.871l2.871 2.871c.39.39.902.585 1.414.585.322 0 .64-.086.931-.24l11.533 11.533c.724.724 1.685 1.122 2.707 1.122 2.112 0 3.829-1.717 3.829-3.829 0-1.022-.398-1.983-1.122-2.707zm-57.878-17.464c-.551 0-1-.449-1-1v-34c0-.551.449-1 1-1h52c.551 0 1 .449 1 1v34c0 .551-.449 1-1 1h-8.526c.572-1.26.993-2.599 1.244-4h3.282c.552 0 1-.448 1-1v-4c0-.552-.448-1-1-1h-3.281c-1.423-7.946-8.37-14-16.719-14-2.497 0-4.862.555-7 1.526v-4.526c0-.552-.448-1-1-1h-4c-.552 0-1 .448-1 1v9.068c-1.878 2.229-3.184 4.947-3.719 7.932h-.281v-23c0-.552-.448-1-1-1h-4c-.552 0-1 .448-1 1v23h-1c-.552 0-1 .448-1 1v4c0 .552.448 1 1 1h7.281c.251 1.401.672 2.74 1.244 4zm44.949-8h2.051v2h-2.051c.02-.333.051-.662.051-1s-.031-.667-.051-1zm-25.949-13.396c-.702.44-1.372.923-2 1.458v-6.062h2zm-7.949 15.396h-6.051v-2h6.051c-.02.333-.051.662-.051 1s.031.667.051 1zm-2.051-4h-2v-22h2zm4 3c0-8.271 6.729-15 15-15s15 6.729 15 15-6.729 15-15 15-15-6.729-15-15zm24.503 14.089c1.805-1.222 3.364-2.781 4.586-4.586l2.497 2.497-4.586 4.586zm17.668 14.911c-.488 0-.947-.19-1.293-.536l-11.464-11.464 2.586-2.586 11.464 11.464c.346.346.536.805.536 1.293 0 1.009-.82 1.829-1.829 1.829z"/></g></svg>