<svg id="Capa_1" enable-background="new 0 0 512 512" height="512" viewBox="0 0 512 512" width="512" xmlns="http://www.w3.org/2000/svg"><g><g><path d="m256 221.072h86.979c4.142 0 7.5-3.358 7.5-7.5s-3.358-7.5-7.5-7.5h-86.979c-4.142 0-7.5 3.358-7.5 7.5s3.358 7.5 7.5 7.5z"/><path d="m169.021 264.028h173.957c4.142 0 7.5-3.358 7.5-7.5s-3.358-7.5-7.5-7.5h-173.957c-4.142 0-7.5 3.358-7.5 7.5s3.358 7.5 7.5 7.5z"/><path d="m256 178.116h86.979c4.142 0 7.5-3.358 7.5-7.5s-3.358-7.5-7.5-7.5h-86.979c-4.142 0-7.5 3.358-7.5 7.5s3.358 7.5 7.5 7.5z"/><path d="m169.021 306.984h173.957c4.142 0 7.5-3.358 7.5-7.5s-3.358-7.5-7.5-7.5h-173.957c-4.142 0-7.5 3.358-7.5 7.5s3.358 7.5 7.5 7.5z"/><path d="m169.021 178.116h9.77v44.5c0 4.142 3.358 7.5 7.5 7.5s7.5-3.358 7.5-7.5v-44.5h9.91c4.142 0 7.5-3.358 7.5-7.5s-3.358-7.5-7.5-7.5h-34.68c-4.142 0-7.5 3.358-7.5 7.5s3.358 7.5 7.5 7.5z"/><path d="m492.075 401.811h-13.163v-253.28c0-18.471-15.027-33.499-33.499-33.499h-48.012c-.781-5.609-3.345-10.79-7.42-14.865l-57.454-57.454c-4.951-4.951-11.533-7.678-18.535-7.678h-167.45c-17.755 0-32.2 14.445-32.2 32.201v47.796h-47.755c-18.471 0-33.499 15.028-33.499 33.499v253.28h-13.163c-10.987 0-19.925 8.938-19.925 19.925 0 30.453 24.776 55.229 55.229 55.229h401.542c30.453 0 55.229-24.776 55.229-55.229 0-10.987-8.938-19.925-19.925-19.925zm-120.131-298.468h-25.501c-9.484 0-17.2-7.716-17.2-17.2v-25.501zm-242.603-36.107c0-9.484 7.716-17.201 17.2-17.201h167.451c.084 0 .167.01.251.012v36.096c0 17.755 14.445 32.2 32.2 32.2h36.198c.004.12.017.238.017.358v191.134c0 4.142 3.358 7.5 7.5 7.5s7.5-3.358 7.5-7.5v-144.598h31.047v201.368h-31.047v-21.707c0-4.142-3.358-7.5-7.5-7.5s-7.5 3.358-7.5 7.5v21.707h-253.317zm-81.253 81.295c0-10.2 8.298-18.499 18.499-18.499h47.754v20.206h-31.686c-7.919 0-14.361 6.442-14.361 14.361v20.225c0 4.142 3.358 7.5 7.5 7.5s7.5-3.358 7.5-7.5v-19.586h31.047v201.368h-31.047v-146.72c0-4.142-3.358-7.5-7.5-7.5s-7.5 3.358-7.5 7.5v147.358c0 7.919 6.442 14.361 14.361 14.361h346.689c7.919 0 14.361-6.442 14.361-14.361v-202.646c0-7.919-6.442-14.361-14.361-14.361h-31.686v-20.206h47.754c10.2 0 18.499 8.299 18.499 18.499v253.28h-415.823zm135.612 268.28h144.6v7.539c0 4.157-3.382 7.539-7.539 7.539h-129.522c-4.157 0-7.539-3.382-7.539-7.539zm273.071 45.154h-401.542c-22.182 0-40.229-18.047-40.229-40.229 0-2.716 2.209-4.925 4.925-4.925h148.775v7.539c0 12.428 10.111 22.539 22.539 22.539h129.522c12.428 0 22.539-10.111 22.539-22.539v-7.539h148.775c2.716 0 4.925 2.209 4.925 4.925 0 22.182-18.047 40.229-40.229 40.229z"/></g></g></svg>