<?xml version="1.0"?>
<svg xmlns="http://www.w3.org/2000/svg" width="512" height="512" viewBox="0 0 512 512"><g><path d="M476,48H36A28.031,28.031,0,0,0,8,76V436a28.031,28.031,0,0,0,28,28H476a28.031,28.031,0,0,0,28-28V76A28.031,28.031,0,0,0,476,48Zm12,388a12.01,12.01,0,0,1-12,12H36a12.01,12.01,0,0,1-12-12V112H488Zm0-340H24V76A12.01,12.01,0,0,1,36,64H476a12.01,12.01,0,0,1,12,12Z"/><path d="M40,88h8a8,8,0,0,0,0-16H40a8,8,0,0,0,0,16Z"/><path d="M72,88h8a8,8,0,0,0,0-16H72a8,8,0,0,0,0,16Z"/><path d="M104,88h8a8,8,0,0,0,0-16h-8a8,8,0,0,0,0,16Z"/><path d="M184,136H56a8,8,0,0,0-8,8V272a8,8,0,0,0,8,8H184a8,8,0,0,0,8-8V144A8,8,0,0,0,184,136Zm-8,128H64V152H176Z"/><path d="M158.46,245.11l-31-80a8,8,0,0,0-7.42-5.11H120a8.006,8.006,0,0,0-7.43,5.03l-32,80a8,8,0,0,0,14.86,5.94L106.22,224h26.9l10.42,26.89a8,8,0,1,0,14.92-5.78ZM112.62,208l7.26-18.16L126.92,208Z"/><path d="M456,280H328a8,8,0,0,0-8,8V416a8,8,0,0,0,8,8H456a8,8,0,0,0,8-8V288A8,8,0,0,0,456,280Zm-8,128H336V296H448Z"/><path d="M406.58,336.12A23.736,23.736,0,0,0,408,328a24.032,24.032,0,0,0-24-24H360a8,8,0,0,0-8,8v80a8,8,0,0,0,8,8h44a28.031,28.031,0,0,0,28-28v-8A28.043,28.043,0,0,0,406.58,336.12ZM368,320h16a8,8,0,0,1,0,16H368Zm48,52a12.01,12.01,0,0,1-12,12H368V352h36a12.01,12.01,0,0,1,12,12Z"/><path d="M208,216H384v48a8,8,0,0,0,16,0V208a8,8,0,0,0-8-8H208a8,8,0,0,0,0,16Z"/><path d="M304,344H128V296a8,8,0,0,0-16,0v56a8,8,0,0,0,8,8H304a8,8,0,0,0,0-16Z"/></g></svg>
